# xmcd CD database file
#
# Track frame offsets:
#	183
#	22320
#	37695
#	51758
#	69645
#	93645
#	112995
#	131645
#	147295
#	165470
#	183233
#	201808
#
# Disc length: 2977 seconds
#
# Revision: 0
# Processed by: cddbd v1.4PL0 Copyright (c) Steve Scherf et al.
# Submitted via: Feurio! 1.65 - http://www.feurio.com
#
DISCID=a50b9f0c
DTITLE=Greg 'Fingers' Taylor - New Fingerprints
DYEAR=1992
DGENRE=Blues Rock
TTITLE0=Extra Mile
TTITLE1=Shim Sham Shimmy
TTITLE2=Cave Man Rock
TTITLE3=I'm Tired
TTITLE4=New Fingerprints
TTITLE5=Ral Good Time
TTITLE6=Two Headed Woman
TTITLE7=Standing At The Crossroads Again
TTITLE8=Old Habits
TTITLE9=Waiting On Ice
TTITLE10=Little Girl
TTITLE11=Pork Juice
EXTD=(c) 1992 Appaloosa
EXTT0=
EXTT1=
EXTT2=
EXTT3=
EXTT4=
EXTT5=
EXTT6=
EXTT7=
EXTT8=
EXTT9=
EXTT10=
EXTT11=
PLAYORDER=
